<?xml version="1.0" encoding="UTF-8" standalone="no"?>
<svg
   xmlns:dc="http://purl.org/dc/elements/1.1/"
   xmlns:cc="http://creativecommons.org/ns#"
   xmlns:rdf="http://www.w3.org/1999/02/22-rdf-syntax-ns#"
   xmlns:svg="http://www.w3.org/2000/svg"
   xmlns="http://www.w3.org/2000/svg"
   xmlns:xlink="http://www.w3.org/1999/xlink"
   xmlns:sodipodi="http://sodipodi.sourceforge.net/DTD/sodipodi-0.dtd"
   xmlns:inkscape="http://www.inkscape.org/namespaces/inkscape"
   version="1.1"
   id="svg5644"
   viewBox="0 0 48 48"
   height="48"
   width="48"
   inkscape:version="0.91 r13725"
   sodipodi:docname="com.github.ronnydo.colorpicker.svg">
  <sodipodi:namedview
     pagecolor="#ffffff"
     bordercolor="#666666"
     borderopacity="1"
     objecttolerance="10"
     gridtolerance="10"
     guidetolerance="10"
     inkscape:pageopacity="0"
     inkscape:pageshadow="2"
     inkscape:window-width="1920"
     inkscape:window-height="962"
     id="namedview52"
     showgrid="false"
     showguides="false"
     inkscape:zoom="0.99999996"
     inkscape:cx="177.80714"
     inkscape:cy="48.432504"
     inkscape:window-x="1600"
     inkscape:window-y="30"
     inkscape:window-maximized="1"
     inkscape:current-layer="svg5644" />
  <defs
     id="defs5646">
    <linearGradient
       inkscape:collect="always"
       id="linearGradient4187">
      <stop
         style="stop-color:#f7f7f7;stop-opacity:1"
         offset="0"
         id="stop4189" />
      <stop
         style="stop-color:#f2f2f2;stop-opacity:1"
         offset="1"
         id="stop4191" />
    </linearGradient>
    <radialGradient
       r="62.769119"
       fy="193.04066"
       fx="279.45264"
       cy="193.04066"
       cx="279.45264"
       gradientTransform="matrix(2.2646518,0,0,0.70753242,1422.3606,871.75449)"
       gradientUnits="userSpaceOnUse"
       id="radialGradient3163-0"
       xlink:href="#linearGradient3820-7-2-8-6" />
    <linearGradient
       id="linearGradient3820-7-2-8-6">
      <stop
         offset="0"
         style="stop-color:#3d3d3d;stop-opacity:1"
         id="stop3822-2-6-5-0" />
      <stop
         offset="0.5"
         style="stop-color:#686868;stop-opacity:0.49803922"
         id="stop3864-8-7-4-1" />
      <stop
         offset="1"
         style="stop-color:#686868;stop-opacity:0"
         id="stop3824-1-2-6-7" />
    </linearGradient>
    <radialGradient
       r="62.769119"
       fy="-779.76959"
       fx="-197.5938"
       cy="-779.76959"
       cx="-197.5938"
       gradientTransform="matrix(0.69630612,0,0,0.11886762,169.58821,148.39555)"
       gradientUnits="userSpaceOnUse"
       id="radialGradient3163-0-2"
       xlink:href="#linearGradient3820-7-2-8-6" />
    <linearGradient
       y2="40.495617"
       x2="71.204407"
       y1="15.369057"
       x1="71.204407"
       gradientTransform="matrix(13.727156,0,0,13.727156,-353.60124,993.39589)"
       gradientUnits="userSpaceOnUse"
       id="linearGradient3118"
       xlink:href="#linearGradient4806" />
    <linearGradient
       id="linearGradient4806">
      <stop
         id="stop4808"
         style="stop-color:#ffffff;stop-opacity:1"
         offset="0" />
      <stop
         id="stop4810"
         style="stop-color:#ffffff;stop-opacity:0.23529412"
         offset="0.42447853" />
      <stop
         id="stop4812"
         style="stop-color:#ffffff;stop-opacity:0.15686275"
         offset="0.82089913" />
      <stop
         id="stop4814"
         style="stop-color:#ffffff;stop-opacity:0.39215687"
         offset="1" />
    </linearGradient>
    <radialGradient
       gradientTransform="matrix(0,154.49053,-304.35366,0,3674.6039,-96.071093)"
       gradientUnits="userSpaceOnUse"
       xlink:href="#linearGradient2867-449-88-871-390-598-476-591-434-148-57-177-3-8-8-9"
       id="radialGradient5521-1"
       fy="9.9571075"
       fx="6.9303164"
       r="12.671875"
       cy="9.9571075"
       cx="7.4605465" />
    <linearGradient
       id="linearGradient2867-449-88-871-390-598-476-591-434-148-57-177-3-8-8-9">
      <stop
         id="stop3750-8-9-0"
         style="stop-color:#90dbec;stop-opacity:1"
         offset="0" />
      <stop
         id="stop3752-3-2-2"
         style="stop-color:#42baea;stop-opacity:1"
         offset="0.26238" />
      <stop
         id="stop3754-7-2-2"
         style="stop-color:#3689e6;stop-opacity:1"
         offset="0.704952" />
      <stop
         id="stop3756-9-3-05"
         style="stop-color:#2b63a0;stop-opacity:1"
         offset="1" />
    </linearGradient>
    <radialGradient
       r="62.769119"
       fy="186.17059"
       fx="99.157013"
       cy="186.17059"
       cx="99.157013"
       gradientTransform="matrix(2.2646518,0,0,0.70753243,411.27467,1384.4188)"
       gradientUnits="userSpaceOnUse"
       id="radialGradient3163"
       xlink:href="#linearGradient3820-7-2-8-6" />
    <linearGradient
       y2="40.495617"
       x2="71.204407"
       y1="15.369057"
       x1="71.204407"
       gradientTransform="matrix(4.16388,0,0,4.16388,-236.03265,-50.036246)"
       gradientUnits="userSpaceOnUse"
       id="linearGradient3118-2"
       xlink:href="#linearGradient4806" />
    <radialGradient
       r="62.769119"
       fy="186.17059"
       fx="99.157013"
       cy="186.17059"
       cx="99.157013"
       gradientTransform="matrix(0.6869404,0,0,0.21461693,-4.02174,68.573331)"
       gradientUnits="userSpaceOnUse"
       id="radialGradient3163-9"
       xlink:href="#linearGradient3820-7-2-8-6" />
    <radialGradient
       gradientTransform="matrix(0,46.861858,-92.320077,0,985.84907,-380.50601)"
       gradientUnits="userSpaceOnUse"
       xlink:href="#linearGradient2867-449-88-871-390-598-476-591-434-148-57-177-3-8-8-9"
       id="radialGradient5521-1-1"
       fy="9.9571075"
       fx="6.9303164"
       r="12.671875"
       cy="9.9571075"
       cx="7.4605465" />
    <radialGradient
       r="62.769119"
       fy="-500.58121"
       fx="-150.24731"
       cy="-500.58121"
       cx="-150.24731"
       gradientTransform="matrix(0.78392881,0,0,0.24299389,181.87534,233.6299)"
       gradientUnits="userSpaceOnUse"
       id="radialGradient3163-0-2-6"
       xlink:href="#linearGradient3820-7-2-8-6" />
    <radialGradient
       xlink:href="#linearGradient23419"
       id="radialGradient3300-9"
       gradientUnits="userSpaceOnUse"
       gradientTransform="matrix(0.52432058,1.0360946e-7,-2.519381e-8,0.15292684,-8.9266939,48.181779)"
       cx="99.189415"
       cy="185.29727"
       fx="99.189415"
       fy="185.29727"
       r="62.769119" />
    <linearGradient
       id="linearGradient23419">
      <stop
         id="stop23421"
         style="stop-color:#000000;stop-opacity:1"
         offset="0" />
      <stop
         id="stop23423"
         style="stop-color:#000000;stop-opacity:0"
         offset="1" />
    </linearGradient>
    <radialGradient
       xlink:href="#linearGradient23419"
       id="radialGradient4192"
       gradientUnits="userSpaceOnUse"
       gradientTransform="matrix(0.34954706,7.4005314e-8,-1.6795874e-8,0.10923133,8.4089892,59.021636)"
       cx="99.189415"
       cy="185.29727"
       fx="99.189415"
       fy="185.29727"
       r="62.769119" />
    <radialGradient
       cx="99.157013"
       cy="187.86072"
       r="62.769119"
       fx="99.157013"
       fy="187.86072"
       id="radialGradient3018"
       xlink:href="#linearGradient3820-7-2-8-6"
       gradientUnits="userSpaceOnUse"
       gradientTransform="matrix(0.27083381,0,0,0.08762273,-2.8550719,25.187228)" />
    <linearGradient
       inkscape:collect="always"
       xlink:href="#linearGradient4187"
       id="linearGradient4193"
       x1="71.34787"
       y1="40.12112"
       x2="71.34787"
       y2="96.729141"
       gradientUnits="userSpaceOnUse" />
  </defs>
  <metadata
     id="metadata5649">
    <rdf:RDF>
      <cc:Work
         rdf:about="">
        <dc:format>image/svg+xml</dc:format>
        <dc:type
           rdf:resource="http://purl.org/dc/dcmitype/StillImage" />
        <dc:title />
      </cc:Work>
    </rdf:RDF>
  </metadata>
  <path
     inkscape:connector-curvature="0"
     d="m 41,41.674434 a 17,5.4999999 0 0 1 -33.9999999,0 17,5.4999999 0 1 1 33.9999999,0 z"
     id="path3818-0-5"
     style="fill:url(#radialGradient3018);fill-opacity:1;stroke:none" />
  <g
     id="g4220"
     transform="matrix(0.9961876,0,0,0.9961876,0.09148266,0.35859843)">
    <path
       style="fill:#f2ec39;fill-opacity:1;stroke:none;stroke-width:0.34900001;stroke-linecap:round;stroke-linejoin:miter;stroke-miterlimit:4;stroke-dasharray:none;stroke-opacity:1"
       d="M 29.314755,43.762237 A 20.534583,20.62081 0 0 0 43.834902,18.507005 20.534583,20.62081 0 0 0 18.685271,3.9258899 20.534583,20.62081 0 0 0 4.1651283,29.181122 20.534583,20.62081 0 0 0 29.314755,43.762237 Z"
       id="path8272-96-8-29-8"
       inkscape:connector-curvature="0" />
    <path
       style="fill:#f9ba13;fill-opacity:1;stroke:none;stroke-width:0.34900001;stroke-linecap:round;stroke-linejoin:miter;stroke-miterlimit:4;stroke-dasharray:none;stroke-opacity:1"
       d="m 8.9819695,37.907423 a 20.534583,20.62081 0 0 0 9.7033025,5.854814 l 5.314741,-19.918173 z"
       id="path8272-5-7-5-1-4"
       inkscape:connector-curvature="0" />
    <path
       style="fill:#f89a22;fill-opacity:1;stroke:none;stroke-width:0.34900001;stroke-linecap:round;stroke-linejoin:miter;stroke-miterlimit:4;stroke-dasharray:none;stroke-opacity:1"
       d="m 3.9917301,28.482736 a 20.534583,20.62081 0 0 0 5.488141,9.942443 L 24.000013,23.844064 Z"
       id="path8272-5-6-6-4-2-5"
       inkscape:connector-curvature="0" />
    <path
       style="fill:#ef5725;fill-opacity:1;stroke:none;stroke-width:0.34900001;stroke-linecap:round;stroke-linejoin:miter;stroke-miterlimit:4;stroke-dasharray:none;stroke-opacity:1"
       d="M 4.362693,17.815121 A 20.534583,20.62081 0 0 0 4.1651283,29.181122 L 24.000013,23.844064 Z"
       id="path8272-5-6-9-29-5-7-0"
       inkscape:connector-curvature="0" />
    <path
       style="fill:#ec3425;fill-opacity:1;stroke:none;stroke-width:0.34900001;stroke-linecap:round;stroke-linejoin:miter;stroke-miterlimit:4;stroke-dasharray:none;stroke-opacity:1"
       d="M 9.9954605,8.7629571 A 20.534583,20.62081 0 0 0 4.1651279,18.507005 l 19.8348851,5.337059 z"
       id="path8272-5-6-9-6-82-5-0-3"
       inkscape:connector-curvature="0" />
    <path
       style="fill:#a61d4c;fill-opacity:1;stroke:none;stroke-width:0.34900001;stroke-linecap:round;stroke-linejoin:miter;stroke-miterlimit:4;stroke-dasharray:none;stroke-opacity:1"
       d="M 19.380736,3.7517639 A 20.534583,20.62081 0 0 0 9.4798692,9.2629482 L 24.000013,23.844064 Z"
       id="path8272-5-6-9-6-3-9-2-9-6"
       inkscape:connector-curvature="0" />
    <path
       style="fill:#7d3693;fill-opacity:1;stroke:none;stroke-width:0.34900001;stroke-linecap:round;stroke-linejoin:miter;stroke-miterlimit:4;stroke-dasharray:none;stroke-opacity:1"
       d="M 30.003744,4.124285 A 20.534583,20.62081 0 0 0 18.68527,3.9258902 l 5.314743,19.9181738 z"
       id="path8272-5-6-9-6-3-0-15-5-3-1"
       inkscape:connector-curvature="0" />
    <path
       style="fill:#47318f;fill-opacity:1;stroke:none;stroke-width:0.34900001;stroke-linecap:round;stroke-linejoin:miter;stroke-miterlimit:4;stroke-dasharray:none;stroke-opacity:1"
       d="M 39.018054,9.7807062 A 20.534583,20.62081 0 0 0 29.314753,3.9258903 l -5.31474,19.9181737 z"
       id="path8272-5-6-9-6-3-0-8-6-7-6-0"
       inkscape:connector-curvature="0" />
    <path
       style="fill:#3e5daa;fill-opacity:1;stroke:none;stroke-width:0.34900001;stroke-linecap:round;stroke-linejoin:miter;stroke-miterlimit:4;stroke-dasharray:none;stroke-opacity:1"
       d="M 44.008298,19.205392 A 20.534583,20.62081 0 0 0 38.520152,9.2629502 L 24.000013,23.844064 Z"
       id="path8272-5-6-9-6-3-0-8-5-1-5-0-6"
       inkscape:connector-curvature="0" />
    <path
       style="fill:#1892cd;fill-opacity:1;stroke:none;stroke-width:0.34900001;stroke-linecap:round;stroke-linejoin:miter;stroke-miterlimit:4;stroke-dasharray:none;stroke-opacity:1"
       d="M 43.637328,29.873006 A 20.534583,20.62081 0 0 0 43.834902,18.507005 L 24.000013,23.844064 Z"
       id="path8272-5-6-9-6-3-0-8-5-4-9-4-62-3"
       inkscape:connector-curvature="0" />
    <path
       style="fill:#63ae45;fill-opacity:1;stroke:none;stroke-width:0.34900001;stroke-linecap:round;stroke-linejoin:miter;stroke-miterlimit:4;stroke-dasharray:none;stroke-opacity:1"
       d="m 38.004566,38.92517 a 20.534583,20.62081 0 0 0 5.830328,-9.744047 L 24.000013,23.844064 Z"
       id="path8272-5-6-9-6-3-0-8-5-4-4-9-8-61-2"
       inkscape:connector-curvature="0" />
    <path
       style="fill:#cedd38;fill-opacity:1;stroke:none;stroke-width:0.34900001;stroke-linecap:round;stroke-linejoin:miter;stroke-miterlimit:4;stroke-dasharray:none;stroke-opacity:1"
       d="m 29.314755,43.762237 a 20.534583,20.62081 0 0 0 9.205401,-5.337058 L 24.000013,23.844064 Z"
       id="path8272-5-6-9-6-3-0-8-5-4-4-3-69-0-8-0"
       inkscape:connector-curvature="0" />
  </g>
  <path
     inkscape:connector-curvature="0"
     id="path8089-1-7-6"
     d="M 44.4469,24.111757 A 20.446897,20.532755 0 0 1 23.999994,44.644512 20.446897,20.532755 0 0 1 3.5531,24.111757 20.446897,20.532755 0 0 1 23.999994,3.5790005 20.446897,20.532755 0 0 1 44.4469,24.111757 Z"
     style="opacity:0.4;fill:none;fill-opacity:1;stroke:#000000;stroke-width:1.00719976;stroke-linecap:round;stroke-linejoin:miter;stroke-miterlimit:4;stroke-dasharray:none;stroke-opacity:1" />
  <path
     inkscape:connector-curvature="0"
     id="path8089-1-3-92-1"
     d="M 43.45966,24.094408 A 19.459657,19.541371 0 0 1 23.999994,43.63578 19.459657,19.541371 0 0 1 4.5403399,24.094408 19.459657,19.541371 0 0 1 23.999994,4.5530392 19.459657,19.541371 0 0 1 43.45966,24.094408 Z"
     style="opacity:0.5;fill:none;fill-opacity:1;stroke:#ffffff;stroke-width:0.98094463;stroke-linecap:round;stroke-linejoin:miter;stroke-miterlimit:4;stroke-dasharray:none;stroke-opacity:1" />
  <g
     style="opacity:0.05;fill:#000000;fill-opacity:1"
     id="g8243-2-7-4"
     transform="matrix(0.10146774,0.10189382,-0.10146774,0.10189382,18.271257,-75.503807)">
    <path
       inkscape:connector-curvature="0"
       style="fill:#000000;fill-opacity:1;stroke:none;stroke-width:0.34900001;stroke-linecap:round;stroke-linejoin:miter;stroke-miterlimit:4;stroke-dasharray:none;stroke-opacity:1"
       d="m 525.66016,363.19141 a 20,20.455589 0 0 0 -10.47266,2.73437 20,20.455589 0 0 0 -9.99414,17.44336 l -0.006,0 0,25.52539 -9.71875,0 c -5.50089,0 -9.92969,4.4288 -9.92969,9.92969 0,5.50089 4.4288,9.92969 9.92969,9.92969 l 59.4375,0 c 5.50089,0 9.92969,-4.4288 9.92969,-9.92969 0,-5.50089 -4.4288,-9.92969 -9.92969,-9.92969 l -9.71875,0 0,-25.52539 -0.0137,0 a 20,20.455589 0 0 0 -9.98633,-17.44336 20,20.455589 0 0 0 -9.52734,-2.73437 z"
       id="rect8140-3-36-5" />
    <path
       inkscape:connector-curvature="0"
       style="fill:#000000;fill-opacity:1;stroke:none;stroke-width:0.34900001;stroke-linecap:round;stroke-linejoin:miter;stroke-miterlimit:4;stroke-dasharray:none;stroke-opacity:1"
       d="m 505.1875,438.1582 0,95.9375 0,0.0274 0.008,0 13.20703,41.51172 13.57227,0 13.20508,-41.51172 0.008,0 0,-0.0274 0,-95.9375 -40,0 z"
       id="rect8172-9-2-12-2" />
  </g>
  <g
     style="opacity:0.15;fill:#000000;fill-opacity:1"
     id="g8243-2-7-5"
     transform="matrix(0.09879708,0.09921193,-0.09879708,0.09921193,18.422039,-73.695316)">
    <path
       inkscape:connector-curvature="0"
       style="fill:#000000;fill-opacity:1;stroke:none;stroke-width:0.34900001;stroke-linecap:round;stroke-linejoin:miter;stroke-miterlimit:4;stroke-dasharray:none;stroke-opacity:1"
       d="m 525.66016,363.19141 a 20,20.455589 0 0 0 -10.47266,2.73437 20,20.455589 0 0 0 -9.99414,17.44336 l -0.006,0 0,25.52539 -9.71875,0 c -5.50089,0 -9.92969,4.4288 -9.92969,9.92969 0,5.50089 4.4288,9.92969 9.92969,9.92969 l 59.4375,0 c 5.50089,0 9.92969,-4.4288 9.92969,-9.92969 0,-5.50089 -4.4288,-9.92969 -9.92969,-9.92969 l -9.71875,0 0,-25.52539 -0.0137,0 a 20,20.455589 0 0 0 -9.98633,-17.44336 20,20.455589 0 0 0 -9.52734,-2.73437 z"
       id="rect8140-3-36-4" />
    <path
       inkscape:connector-curvature="0"
       style="fill:#000000;fill-opacity:1;stroke:none;stroke-width:0.34900001;stroke-linecap:round;stroke-linejoin:miter;stroke-miterlimit:4;stroke-dasharray:none;stroke-opacity:1"
       d="m 505.1875,438.1582 0,95.9375 0,0.0274 0.008,0 13.20703,41.51172 13.57227,0 13.20508,-41.51172 0.008,0 0,-0.0274 0,-95.9375 -40,0 z"
       id="rect8172-9-2-12-7" />
  </g>
  <g
     id="g4667"
     transform="matrix(0.38566838,0,0,0.38566838,-3.3865983,-2.2984577)"
     style="fill-opacity:1;fill:url(#linearGradient4193)">
    <path
       inkscape:connector-curvature="0"
       style="fill:url(#linearGradient4193);fill-opacity:1;stroke:none;stroke-width:0.34900001;stroke-linecap:round;stroke-linejoin:miter;stroke-miterlimit:4;stroke-dasharray:none;stroke-opacity:1"
       d="m 97.330311,42.284792 a 7.0356347,7.1986844 39.729891 0 0 -3.278971,-1.929288 7.0356347,7.1986844 39.729891 0 0 -6.812034,1.857219 l -0.0015,-0.0015 -6.337307,6.363917 -2.41292,-2.423051 c -1.365731,-1.371466 -3.564848,-1.371466 -4.930579,0 -1.365732,1.371466 -1.365732,3.579818 0,4.951284 l 14.756822,14.818785 c 1.365732,1.371467 3.56485,1.371467 4.930581,0 1.365731,-1.371466 1.365731,-3.579816 0,-4.951282 l -2.41292,-2.423052 6.337307,-6.363916 -0.0034,-0.0034 a 7.0356347,7.1986844 39.729891 0 0 1.851392,-6.838692 7.0356347,7.1986844 39.729891 0 0 -1.686523,-3.057054 z"
       id="rect8140-3-36" />
    <g
       transform="matrix(0.88241267,0,0,0.88241267,14.536297,13.778944)"
       id="g4284"
       style="fill-opacity:1;fill:url(#linearGradient4193)">
      <path
         id="rect8172-9-2-12"
         d="m 66.974129,47.701228 -26.992865,27.106208 -0.0077,0.0077 0.0023,0.0023 -7.963775,15.460251 3.818679,3.834713 15.395056,-7.997766 0.0023,0.0023 0.0077,-0.0077 L 78.228591,59.002947 66.974236,47.701336 Z"
         style="fill:url(#linearGradient4193);fill-opacity:1;stroke:none;stroke-width:0.34900001;stroke-linecap:round;stroke-linejoin:miter;stroke-miterlimit:4;stroke-dasharray:none;stroke-opacity:1"
         inkscape:connector-curvature="0" />
    </g>
  </g>
</svg>
