<?xml version="1.0" encoding="UTF-8" standalone="no"?>
<svg
   xmlns:dc="http://purl.org/dc/elements/1.1/"
   xmlns:cc="http://creativecommons.org/ns#"
   xmlns:rdf="http://www.w3.org/1999/02/22-rdf-syntax-ns#"
   xmlns:svg="http://www.w3.org/2000/svg"
   xmlns="http://www.w3.org/2000/svg"
   xmlns:xlink="http://www.w3.org/1999/xlink"
   xmlns:sodipodi="http://sodipodi.sourceforge.net/DTD/sodipodi-0.dtd"
   xmlns:inkscape="http://www.inkscape.org/namespaces/inkscape"
   version="1.1"
   id="svg5644"
   viewBox="0 0 128 128"
   height="128"
   width="128"
   inkscape:version="0.91 r13725"
   sodipodi:docname="com.github.ronnydo.colorpicker.svg">
  <sodipodi:namedview
     pagecolor="#ffffff"
     bordercolor="#666666"
     borderopacity="1"
     objecttolerance="10"
     gridtolerance="10"
     guidetolerance="10"
     inkscape:pageopacity="0"
     inkscape:pageshadow="2"
     inkscape:window-width="1631"
     inkscape:window-height="961"
     id="namedview52"
     showgrid="false"
     showguides="false"
     inkscape:zoom="2.8284271"
     inkscape:cx="56.890517"
     inkscape:cy="94.44466"
     inkscape:window-x="1665"
     inkscape:window-y="30"
     inkscape:window-maximized="0"
     inkscape:current-layer="svg5644" />
  <defs
     id="defs5646">
    <linearGradient
       inkscape:collect="always"
       id="linearGradient4189">
      <stop
         style="stop-color:#f7f7f7;stop-opacity:1"
         offset="0"
         id="stop4191" />
      <stop
         style="stop-color:#f2f2f2;stop-opacity:1"
         offset="1"
         id="stop4193" />
    </linearGradient>
    <radialGradient
       r="62.769119"
       fy="193.04066"
       fx="279.45264"
       cy="193.04066"
       cx="279.45264"
       gradientTransform="matrix(2.2646518,0,0,0.70753242,1422.3606,871.75449)"
       gradientUnits="userSpaceOnUse"
       id="radialGradient3163-0"
       xlink:href="#linearGradient3820-7-2-8-6" />
    <linearGradient
       id="linearGradient3820-7-2-8-6">
      <stop
         offset="0"
         style="stop-color:#3d3d3d;stop-opacity:1"
         id="stop3822-2-6-5-0" />
      <stop
         offset="0.5"
         style="stop-color:#686868;stop-opacity:0.49803922"
         id="stop3864-8-7-4-1" />
      <stop
         offset="1"
         style="stop-color:#686868;stop-opacity:0"
         id="stop3824-1-2-6-7" />
    </linearGradient>
    <radialGradient
       r="62.769119"
       fy="-516.01373"
       fx="-151.86722"
       cy="-516.01373"
       cx="-151.86722"
       gradientTransform="matrix(0.6963061,-8.8819362e-8,2.5407298e-8,0.19918243,169.58823,211.02257)"
       gradientUnits="userSpaceOnUse"
       id="radialGradient3163-0-2"
       xlink:href="#linearGradient3820-7-2-8-6" />
    <linearGradient
       y2="40.495617"
       x2="71.204407"
       y1="15.369057"
       x1="71.204407"
       gradientTransform="matrix(13.727156,0,0,13.727156,-353.60124,993.39589)"
       gradientUnits="userSpaceOnUse"
       id="linearGradient3118"
       xlink:href="#linearGradient4806" />
    <linearGradient
       id="linearGradient4806">
      <stop
         id="stop4808"
         style="stop-color:#ffffff;stop-opacity:1"
         offset="0" />
      <stop
         id="stop4810"
         style="stop-color:#ffffff;stop-opacity:0.23529412"
         offset="0.42447853" />
      <stop
         id="stop4812"
         style="stop-color:#ffffff;stop-opacity:0.15686275"
         offset="0.82089913" />
      <stop
         id="stop4814"
         style="stop-color:#ffffff;stop-opacity:0.39215687"
         offset="1" />
    </linearGradient>
    <radialGradient
       gradientTransform="matrix(0,154.49053,-304.35366,0,3674.6039,-96.071093)"
       gradientUnits="userSpaceOnUse"
       xlink:href="#linearGradient2867-449-88-871-390-598-476-591-434-148-57-177-3-8-8-9"
       id="radialGradient5521-1"
       fy="9.9571075"
       fx="6.9303164"
       r="12.671875"
       cy="9.9571075"
       cx="7.4605465" />
    <linearGradient
       id="linearGradient2867-449-88-871-390-598-476-591-434-148-57-177-3-8-8-9">
      <stop
         id="stop3750-8-9-0"
         style="stop-color:#90dbec;stop-opacity:1"
         offset="0" />
      <stop
         id="stop3752-3-2-2"
         style="stop-color:#42baea;stop-opacity:1"
         offset="0.26238" />
      <stop
         id="stop3754-7-2-2"
         style="stop-color:#3689e6;stop-opacity:1"
         offset="0.704952" />
      <stop
         id="stop3756-9-3-05"
         style="stop-color:#2b63a0;stop-opacity:1"
         offset="1" />
    </linearGradient>
    <radialGradient
       r="62.769119"
       fy="186.17059"
       fx="99.157013"
       cy="186.17059"
       cx="99.157013"
       gradientTransform="matrix(2.2646518,0,0,0.70753243,411.27467,1384.4188)"
       gradientUnits="userSpaceOnUse"
       id="radialGradient3163"
       xlink:href="#linearGradient3820-7-2-8-6" />
    <linearGradient
       y2="40.495617"
       x2="71.204407"
       y1="15.369057"
       x1="71.204407"
       gradientTransform="matrix(4.16388,0,0,4.16388,-236.03265,-50.036246)"
       gradientUnits="userSpaceOnUse"
       id="linearGradient3118-2"
       xlink:href="#linearGradient4806" />
    <radialGradient
       r="62.769119"
       fy="186.17059"
       fx="99.157013"
       cy="186.17059"
       cx="99.157013"
       gradientTransform="matrix(0.6869404,0,0,0.21461693,-4.02174,68.573331)"
       gradientUnits="userSpaceOnUse"
       id="radialGradient3163-9"
       xlink:href="#linearGradient3820-7-2-8-6" />
    <radialGradient
       gradientTransform="matrix(0,46.861858,-92.320077,0,985.84907,-380.50601)"
       gradientUnits="userSpaceOnUse"
       xlink:href="#linearGradient2867-449-88-871-390-598-476-591-434-148-57-177-3-8-8-9"
       id="radialGradient5521-1-1"
       fy="9.9571075"
       fx="6.9303164"
       r="12.671875"
       cy="9.9571075"
       cx="7.4605465" />
    <radialGradient
       r="62.769119"
       fy="-500.58121"
       fx="-150.24731"
       cy="-500.58121"
       cx="-150.24731"
       gradientTransform="matrix(0.78392881,0,0,0.24299389,181.87534,233.6299)"
       gradientUnits="userSpaceOnUse"
       id="radialGradient3163-0-2-6"
       xlink:href="#linearGradient3820-7-2-8-6" />
    <linearGradient
       inkscape:collect="always"
       xlink:href="#linearGradient4189"
       id="linearGradient4195"
       x1="71.374176"
       y1="40.012909"
       x2="71.374176"
       y2="97.085487"
       gradientUnits="userSpaceOnUse" />
  </defs>
  <metadata
     id="metadata5649">
    <rdf:RDF>
      <cc:Work
         rdf:about="">
        <dc:format>image/svg+xml</dc:format>
        <dc:type
           rdf:resource="http://purl.org/dc/dcmitype/StillImage" />
        <dc:title />
      </cc:Work>
    </rdf:RDF>
  </metadata>
  <path
     inkscape:connector-curvature="0"
     d="m 108.18623,109.00945 a 44.186236,13.804854 0 0 1 -88.372457,0 44.186236,13.804854 0 1 1 88.372457,0 z"
     id="path3818-0-5-0-4"
     style="fill:url(#radialGradient3163-0-2);fill-opacity:1;stroke:none" />
  <g
     transform="matrix(0.31548205,0,0,0.31680676,-266.02134,-79.894447)"
     id="g4992">
    <path
       transform="matrix(0.25881905,0.96592583,0.96592583,-0.25881905,0,0)"
       style="fill:#f2ec39;fill-opacity:1;stroke:none;stroke-width:0.34900001;stroke-linecap:round;stroke-linejoin:miter;stroke-miterlimit:4;stroke-dasharray:none;stroke-opacity:1"
       d="M 878.63707,891.61951 A 164.44035,164.44035 0 0 1 714.19672,1056.0599 164.44035,164.44035 0 0 1 549.75636,891.61951 164.44035,164.44035 0 0 1 714.19672,727.17915 164.44035,164.44035 0 0 1 878.63707,891.61951 Z"
       id="path8272-96-8-29-8"
       inkscape:connector-curvature="0" />
    <path
       transform="matrix(0.25881905,0.96592583,0.96592583,-0.25881905,0,0)"
       style="fill:#f9ba13;fill-opacity:1;stroke:none;stroke-width:0.34900001;stroke-linecap:round;stroke-linejoin:miter;stroke-miterlimit:4;stroke-dasharray:none;stroke-opacity:1"
       d="m 791.39679,746.42729 a 164.44035,164.44035 0 0 1 65.20945,62.97204 l -142.40952,82.22018 z"
       id="path8272-5-7-5-1-4"
       inkscape:connector-curvature="0" />
    <path
       transform="matrix(0.25881905,0.96592583,0.96592583,-0.25881905,0,0)"
       style="fill:#f89a22;fill-opacity:1;stroke:none;stroke-width:0.34900001;stroke-linecap:round;stroke-linejoin:miter;stroke-miterlimit:4;stroke-dasharray:none;stroke-opacity:1"
       d="m 708.45783,727.27933 a 164.44035,164.44035 0 0 1 87.95907,21.93066 l -82.22018,142.40952 z"
       id="path8272-5-6-6-4-2-5"
       inkscape:connector-curvature="0" />
    <path
       transform="matrix(0.25881905,0.96592583,0.96592583,-0.25881905,0,0)"
       style="fill:#ef5725;fill-opacity:1;stroke:none;stroke-width:0.34900001;stroke-linecap:round;stroke-linejoin:miter;stroke-miterlimit:4;stroke-dasharray:none;stroke-opacity:1"
       d="m 627.0566,752.16618 a 164.44035,164.44035 0 0 1 87.14012,-24.98703 l 0,164.44036 z"
       id="path8272-5-6-9-29-5-7-0"
       inkscape:connector-curvature="0" />
    <path
       transform="matrix(0.25881905,0.96592583,0.96592583,-0.25881905,0,0)"
       style="fill:#ec3425;fill-opacity:1;stroke:none;stroke-width:0.34900001;stroke-linecap:round;stroke-linejoin:miter;stroke-miterlimit:4;stroke-dasharray:none;stroke-opacity:1"
       d="m 569.0045,814.41944 a 164.44035,164.44035 0 0 1 62.97204,-65.20946 l 82.22018,142.40953 z"
       id="path8272-5-6-9-6-82-5-0-3"
       inkscape:connector-curvature="0" />
    <path
       transform="matrix(0.25881905,0.96592583,0.96592583,-0.25881905,0,0)"
       style="fill:#a61d4c;fill-opacity:1;stroke:none;stroke-width:0.34900001;stroke-linecap:round;stroke-linejoin:miter;stroke-miterlimit:4;stroke-dasharray:none;stroke-opacity:1"
       d="m 549.85654,897.35839 a 164.44035,164.44035 0 0 1 21.93065,-87.95906 l 142.40953,82.22018 z"
       id="path8272-5-6-9-6-3-9-2-9-6"
       inkscape:connector-curvature="0" />
    <path
       transform="matrix(0.25881905,0.96592583,0.96592583,-0.25881905,0,0)"
       style="fill:#7d3693;fill-opacity:1;stroke:none;stroke-width:0.34900001;stroke-linecap:round;stroke-linejoin:miter;stroke-miterlimit:4;stroke-dasharray:none;stroke-opacity:1"
       d="M 574.74339,978.75962 A 164.44035,164.44035 0 0 1 549.75636,891.6195 l 164.44036,10e-6 z"
       id="path8272-5-6-9-6-3-0-15-5-3-1"
       inkscape:connector-curvature="0" />
    <path
       transform="matrix(0.25881905,0.96592583,0.96592583,-0.25881905,0,0)"
       style="fill:#47318f;fill-opacity:1;stroke:none;stroke-width:0.34900001;stroke-linecap:round;stroke-linejoin:miter;stroke-miterlimit:4;stroke-dasharray:none;stroke-opacity:1"
       d="M 636.99665,1036.8117 A 164.44035,164.44035 0 0 1 571.78719,973.83968 L 714.19672,891.61951 Z"
       id="path8272-5-6-9-6-3-0-8-6-7-6-0"
       inkscape:connector-curvature="0" />
    <path
       transform="matrix(0.25881905,0.96592583,0.96592583,-0.25881905,0,0)"
       style="fill:#3e5daa;fill-opacity:1;stroke:none;stroke-width:0.34900001;stroke-linecap:round;stroke-linejoin:miter;stroke-miterlimit:4;stroke-dasharray:none;stroke-opacity:1"
       d="M 719.93561,1055.9597 A 164.44035,164.44035 0 0 1 631.97654,1034.029 L 714.19672,891.61951 Z"
       id="path8272-5-6-9-6-3-0-8-5-1-5-0-6"
       inkscape:connector-curvature="0" />
    <path
       transform="matrix(0.25881905,0.96592583,0.96592583,-0.25881905,0,0)"
       style="fill:#1892cd;fill-opacity:1;stroke:none;stroke-width:0.34900001;stroke-linecap:round;stroke-linejoin:miter;stroke-miterlimit:4;stroke-dasharray:none;stroke-opacity:1"
       d="m 801.33682,1031.0728 a 164.44035,164.44035 0 0 1 -87.1401,24.9871 l 0,-164.44039 z"
       id="path8272-5-6-9-6-3-0-8-5-4-9-4-62-3"
       inkscape:connector-curvature="0" />
    <path
       transform="matrix(0.25881905,0.96592583,0.96592583,-0.25881905,0,0)"
       style="fill:#63ae45;fill-opacity:1;stroke:none;stroke-width:0.34900001;stroke-linecap:round;stroke-linejoin:miter;stroke-miterlimit:4;stroke-dasharray:none;stroke-opacity:1"
       d="M 859.38893,968.81958 A 164.44035,164.44035 0 0 1 796.41689,1034.029 L 714.19672,891.61951 Z"
       id="path8272-5-6-9-6-3-0-8-5-4-4-9-8-61-2"
       inkscape:connector-curvature="0" />
    <path
       transform="matrix(0.25881905,0.96592583,0.96592583,-0.25881905,0,0)"
       style="fill:#cedd38;fill-opacity:1;stroke:none;stroke-width:0.34900001;stroke-linecap:round;stroke-linejoin:miter;stroke-miterlimit:4;stroke-dasharray:none;stroke-opacity:1"
       d="m 878.63707,891.61951 a 164.44035,164.44035 0 0 1 -22.03083,82.22017 L 714.19672,891.61951 Z"
       id="path8272-5-6-9-6-3-0-8-5-4-4-3-69-0-8-0"
       inkscape:connector-curvature="0" />
    <path
       style="opacity:0.4;fill:none;fill-opacity:1;stroke:#000000;stroke-width:5.62718296;stroke-linecap:round;stroke-linejoin:miter;stroke-miterlimit:4;stroke-dasharray:none;stroke-opacity:1"
       d="M 1210.0349,459.59296 A 163.94891,163.94891 0 0 1 1046.0859,623.54187 163.94891,163.94891 0 0 1 882.13702,459.59296 163.94891,163.94891 0 0 1 1046.0859,295.64404 163.94891,163.94891 0 0 1 1210.0349,459.59296 Z"
       id="path8089-1-7-6"
       inkscape:connector-curvature="0" />
    <path
       style="opacity:0.5;fill:none;fill-opacity:1;stroke:#ffffff;stroke-width:3.02979922;stroke-linecap:round;stroke-linejoin:miter;stroke-miterlimit:4;stroke-dasharray:none;stroke-opacity:1"
       d="M 1206.0136,459.09299 A 159.92764,159.92764 0 0 1 1046.0859,619.02063 159.92764,159.92764 0 0 1 886.15829,459.09299 159.92764,159.92764 0 0 1 1046.0859,299.16534 159.92764,159.92764 0 0 1 1206.0136,459.09299 Z"
       id="path8089-1-3-92-1"
       inkscape:connector-curvature="0" />
  </g>
  <g
     style="opacity:0.05;fill:#000000;fill-opacity:1"
     id="g8243-2-7-4"
     transform="matrix(0.25099333,0.25204725,-0.25099333,0.25204725,49.82923,-183.15957)">
    <path
       inkscape:connector-curvature="0"
       style="fill:#000000;fill-opacity:1;stroke:none;stroke-width:0.34900001;stroke-linecap:round;stroke-linejoin:miter;stroke-miterlimit:4;stroke-dasharray:none;stroke-opacity:1"
       d="m 525.66016,363.19141 a 20,20.455589 0 0 0 -10.47266,2.73437 20,20.455589 0 0 0 -9.99414,17.44336 l -0.006,0 0,25.52539 -9.71875,0 c -5.50089,0 -9.92969,4.4288 -9.92969,9.92969 0,5.50089 4.4288,9.92969 9.92969,9.92969 l 59.4375,0 c 5.50089,0 9.92969,-4.4288 9.92969,-9.92969 0,-5.50089 -4.4288,-9.92969 -9.92969,-9.92969 l -9.71875,0 0,-25.52539 -0.0137,0 a 20,20.455589 0 0 0 -9.98633,-17.44336 20,20.455589 0 0 0 -9.52734,-2.73437 z"
       id="rect8140-3-36-5" />
    <path
       inkscape:connector-curvature="0"
       style="fill:#000000;fill-opacity:1;stroke:none;stroke-width:0.34900001;stroke-linecap:round;stroke-linejoin:miter;stroke-miterlimit:4;stroke-dasharray:none;stroke-opacity:1"
       d="m 505.1875,438.1582 0,95.9375 0,0.0274 0.008,0 13.20703,41.51172 13.57227,0 13.20508,-41.51172 0.008,0 0,-0.0274 0,-95.9375 -40,0 z"
       id="rect8172-9-2-12-2" />
  </g>
  <g
     style="opacity:0.15;fill:#000000;fill-opacity:1"
     id="g8243-2-7-5"
     transform="matrix(0.24438711,0.24541328,-0.24438711,0.24541328,50.202209,-177.27309)">
    <path
       inkscape:connector-curvature="0"
       style="fill:#000000;fill-opacity:1;stroke:none;stroke-width:0.34900001;stroke-linecap:round;stroke-linejoin:miter;stroke-miterlimit:4;stroke-dasharray:none;stroke-opacity:1"
       d="m 525.66016,363.19141 a 20,20.455589 0 0 0 -10.47266,2.73437 20,20.455589 0 0 0 -9.99414,17.44336 l -0.006,0 0,25.52539 -9.71875,0 c -5.50089,0 -9.92969,4.4288 -9.92969,9.92969 0,5.50089 4.4288,9.92969 9.92969,9.92969 l 59.4375,0 c 5.50089,0 9.92969,-4.4288 9.92969,-9.92969 0,-5.50089 -4.4288,-9.92969 -9.92969,-9.92969 l -9.71875,0 0,-25.52539 -0.0137,0 a 20,20.455589 0 0 0 -9.98633,-17.44336 20,20.455589 0 0 0 -9.52734,-2.73437 z"
       id="rect8140-3-36-4" />
    <path
       inkscape:connector-curvature="0"
       style="fill:#000000;fill-opacity:1;stroke:none;stroke-width:0.34900001;stroke-linecap:round;stroke-linejoin:miter;stroke-miterlimit:4;stroke-dasharray:none;stroke-opacity:1"
       d="m 505.1875,438.1582 0,95.9375 0,0.0274 0.008,0 13.20703,41.51172 13.57227,0 13.20508,-41.51172 0.008,0 0,-0.0274 0,-95.9375 -40,0 z"
       id="rect8172-9-2-12-7" />
  </g>
  <g
     id="g4667"
     transform="matrix(0.95399968,0,0,0.95399968,-3.7442232,0.37868768)"
     style="fill-opacity:1;fill:url(#linearGradient4195)">
    <path
       inkscape:connector-curvature="0"
       style="fill:url(#linearGradient4195);fill-opacity:1;stroke:none;stroke-width:0.34900001;stroke-linecap:round;stroke-linejoin:miter;stroke-miterlimit:4;stroke-dasharray:none;stroke-opacity:1"
       d="m 97.330311,42.284792 a 7.0356347,7.1986844 39.729891 0 0 -3.278971,-1.929288 7.0356347,7.1986844 39.729891 0 0 -6.812034,1.857219 l -0.0015,-0.0015 -6.337307,6.363917 -2.41292,-2.423051 c -1.365731,-1.371466 -3.564848,-1.371466 -4.930579,0 -1.365732,1.371466 -1.365732,3.579818 0,4.951284 l 14.756822,14.818785 c 1.365732,1.371467 3.56485,1.371467 4.930581,0 1.365731,-1.371466 1.365731,-3.579816 0,-4.951282 l -2.41292,-2.423052 6.337307,-6.363916 -0.0034,-0.0034 a 7.0356347,7.1986844 39.729891 0 0 1.851392,-6.838692 7.0356347,7.1986844 39.729891 0 0 -1.686523,-3.057054 z"
       id="rect8140-3-36" />
    <g
       transform="matrix(0.88241267,0,0,0.88241267,14.536297,13.778944)"
       id="g4284"
       style="fill-opacity:1;fill:url(#linearGradient4195)">
      <path
         id="rect8172-9-2-12"
         d="m 66.974129,47.701228 -26.992865,27.106208 -0.0077,0.0077 0.0023,0.0023 -7.963775,15.460251 3.818679,3.834713 15.395056,-7.997766 0.0023,0.0023 0.0077,-0.0077 L 78.228591,59.002947 66.974236,47.701336 Z"
         style="fill:url(#linearGradient4195);fill-opacity:1;stroke:none;stroke-width:0.34900001;stroke-linecap:round;stroke-linejoin:miter;stroke-miterlimit:4;stroke-dasharray:none;stroke-opacity:1"
         inkscape:connector-curvature="0" />
    </g>
  </g>
</svg>
